<svg width="81" height="72" viewBox="0 0 81 72" fill="none" xmlns="http://www.w3.org/2000/svg">
<path fill-rule="evenodd" clip-rule="evenodd" d="M34.8242 40.2351C34.8242 32.6236 41.0166 26.4312 48.6281 26.4312C56.2397 26.4312 62.4321 32.6236 62.4321 40.2351C62.4321 47.8466 56.2397 54.039 48.6281 54.039C41.0166 54.039 34.8242 47.8466 34.8242 40.2351ZM37.9615 40.2351C37.9615 46.1168 42.7464 50.9017 48.6281 50.9017C54.5099 50.9017 59.2948 46.1168 59.2948 40.2351C59.2948 34.3533 54.5099 29.5684 48.6281 29.5684C42.7464 29.5684 37.9615 34.3533 37.9615 40.2351Z" fill="black"/>
<path d="M48.6282 33.1772C47.7618 33.1772 47.0596 33.8795 47.0596 34.7459C47.0596 35.6123 47.7618 36.3145 48.6282 36.3145C50.79 36.3145 52.5492 38.0737 52.5492 40.2355C52.5492 41.1019 53.2514 41.8041 54.1178 41.8041C54.9842 41.8041 55.6864 41.1019 55.6864 40.2355C55.6864 36.3433 52.5204 33.1772 48.6282 33.1772Z" fill="black"/>
<path d="M9.66958 11.9061C9.2713 11.1371 8.32522 10.8362 7.55561 11.2339C6.786 11.6322 6.48514 12.5789 6.88343 13.3485L11.1059 21.5053C11.3791 22.0335 11.9318 22.3564 12.5225 22.3527C13.1169 22.3436 13.6555 21.9992 13.9128 21.463L16.4692 16.1407L19.2456 21.5053C19.5158 22.0262 20.0532 22.3527 20.6389 22.3527H20.6622C21.2572 22.3436 21.7952 21.9992 22.0532 21.463L25.9704 13.3062C26.3454 12.5255 26.0164 11.588 25.2358 11.213C24.4545 10.838 23.5176 11.1671 23.1426 11.9483L20.5862 17.2706L17.8093 11.9061C17.536 11.3779 16.9845 11.0537 16.3932 11.0586C15.7983 11.0678 15.2597 11.4122 15.0023 11.9483L12.4465 17.2706L9.66958 11.9061Z" fill="black"/>
<path d="M19.763 3.21587C20.176 3.21587 20.5804 3.04798 20.872 2.75631C21.1643 2.46464 21.3316 2.05962 21.3316 1.64724C21.3316 1.23486 21.1643 0.829839 20.872 0.538172C20.5804 0.246505 20.176 0.0786133 19.763 0.0786133C19.3506 0.0786133 18.9462 0.246505 18.6545 0.538172C18.3622 0.829839 18.1943 1.23486 18.1943 1.64724C18.1943 2.05962 18.3622 2.46464 18.6545 2.75631C18.9462 3.04798 19.3506 3.21587 19.763 3.21587Z" fill="black"/>
<path fill-rule="evenodd" clip-rule="evenodd" d="M80.3137 6.35312V27.059C80.3137 30.5186 77.4994 33.3335 74.0392 33.3335H67.8168C68.595 35.4904 69.0202 37.8139 69.0202 40.2355C69.0202 46.6423 66.0496 52.3672 61.4148 56.108L73.4522 68.146C74.3027 68.9965 75.6869 68.9965 76.5374 68.146C77.3879 67.2949 77.3879 65.9107 76.5374 65.0602L71.6458 60.1681C71.0331 59.5553 71.0331 58.5627 71.6458 57.9499C72.258 57.3372 73.2512 57.3378 73.864 57.9499L78.7555 62.8415C80.8297 64.9156 80.8297 68.29 78.7555 70.3642C77.7188 71.4009 76.3566 71.9193 74.9945 71.9193C73.6324 71.9193 72.2702 71.4009 71.2335 70.3642L58.7837 57.9144C55.7917 59.6399 52.3229 60.6276 48.6281 60.6276C37.3836 60.6276 28.2359 51.48 28.2359 40.2355C28.2359 37.8139 28.6612 35.4904 29.4393 33.3335H6.27451C2.81495 33.3335 0 30.5192 0 27.059V6.35312C0 2.89356 2.81495 0.0786133 6.27451 0.0786133H12.7047C13.5711 0.0786133 14.2733 0.780819 14.2733 1.64724C14.2733 2.51366 13.5711 3.21587 12.7047 3.21587H6.27451C4.54473 3.21587 3.13725 4.62334 3.13725 6.35312V27.059C3.13725 28.7888 4.54473 30.1963 6.27451 30.1963H30.8842C32.9718 26.521 36.1679 23.5553 40.0147 21.7551C39.9528 21.6773 39.8958 21.5958 39.8493 21.5057L37.0729 16.1417L34.5165 21.4634C34.2592 21.9996 33.7206 22.3439 33.1262 22.3531C32.5331 22.3568 31.9828 22.0339 31.7096 21.5057L27.4871 13.3488C27.0888 12.5792 27.3897 11.6331 28.1593 11.2349C28.9289 10.8366 29.875 11.1374 30.2733 11.9064L33.0502 17.271L35.606 11.9487C35.8634 11.4126 36.402 11.0682 36.9963 11.0596C37.5913 11.0541 38.1397 11.3782 38.413 11.9064L41.19 17.271L43.7463 11.9487C44.1207 11.1675 45.0582 10.8384 45.8388 11.214C46.6201 11.589 46.9491 12.5259 46.5741 13.3066L43.0637 20.6154C44.8333 20.1129 46.7004 19.8433 48.6287 19.8433C49.6244 19.8433 50.6036 19.9168 51.5613 20.0553L48.0895 13.3488C47.6918 12.5792 47.992 11.6331 48.7616 11.2349C49.5312 10.8366 50.4779 11.1374 50.8762 11.9064L53.6526 17.271L56.2089 11.9487C56.4663 11.4126 57.0043 11.0682 57.5993 11.0596C58.1918 11.0541 58.7426 11.3782 59.0159 11.9064L61.7929 17.271L64.3487 11.9487C64.7237 11.1675 65.6611 10.8384 66.4418 11.214C67.2224 11.589 67.5515 12.5259 67.1765 13.3066L63.2592 21.4634C63.0018 21.9996 62.4632 22.3439 61.8689 22.3531H61.845C61.2592 22.3531 60.7218 22.0271 60.4522 21.5057L57.6752 16.1417L55.3499 20.983C60.0417 22.6258 63.9553 25.9371 66.3762 30.203C66.4203 30.1993 66.4645 30.1963 66.5098 30.1963H74.0392C75.769 30.1963 77.1765 28.7888 77.1765 27.059V6.35312C77.1765 4.62334 75.769 3.21587 74.0392 3.21587H26.3511C25.4853 3.21587 24.7825 2.51366 24.7825 1.64724C24.7825 0.780819 25.4853 0.0786133 26.3511 0.0786133H74.0392C77.4988 0.0786133 80.3137 2.89356 80.3137 6.35312ZM31.3732 40.2355C31.3732 49.7496 39.114 57.4904 48.6281 57.4904C58.1428 57.4904 65.883 49.7496 65.883 40.2355C65.883 30.7214 58.1422 22.9806 48.6281 22.9806C39.114 22.9806 31.3732 30.7214 31.3732 40.2355Z" fill="black"/>
<path d="M67.9244 54.2291C67.6327 54.5208 67.4648 54.9252 67.4648 55.3382C67.4648 55.7505 67.6327 56.1549 67.9244 56.4472C68.2179 56.7389 68.6211 56.9068 69.0335 56.9068C69.4458 56.9068 69.8509 56.7389 70.1425 56.4472C70.436 56.1549 70.6021 55.7505 70.6021 55.3382C70.6021 54.9252 70.436 54.5208 70.1425 54.2291C69.8509 53.9374 69.4477 53.7695 69.0335 53.7695C68.6211 53.7695 68.2161 53.9374 67.9244 54.2291Z" fill="black"/>
</svg>
