<svg width="72" height="72" viewBox="0 0 72 72" fill="none" xmlns="http://www.w3.org/2000/svg">
<g id="001-drag">
<path id="Path" d="M64.5 27H49.5C48.672 27 48 27.672 48 28.5C48 29.328 48.672 30.0001 49.5 30.0001H64.5C66.9811 30.0001 69 32.019 69 34.5001V64.5C69 66.9811 66.9811 69 64.5 69H34.5C32.0189 69 30 66.9811 30 64.5V52.5001C30 51.6721 29.3279 51 28.4999 51C27.6719 51 27 51.672 27 52.5V64.4999C27 68.634 30.366 72 34.5 72H64.4999C68.634 72 72 68.634 72 64.5V34.5C72 30.366 68.634 27 64.5 27Z" fill="black"/>
<path id="Path_2" d="M22.5001 42H21C20.172 42 19.5 42.672 19.5 43.5C19.5 44.328 20.172 45 21 45H22.5001C23.3281 45 24.0001 44.3279 24.0001 43.4999C24.0001 42.6719 23.3281 42 22.5001 42Z" fill="black"/>
<g id="Group">
<path id="Path_3" d="M8.82296 0H7.49996C6.78305 0 6.07501 0.101953 5.39396 0.299953C4.59901 0.533953 4.14296 1.368 4.37401 2.16295C4.56596 2.817 5.16601 3.24 5.81401 3.24C5.95505 3.24 6.09596 3.222 6.23701 3.17995C6.64496 3.06 7.06796 2.99995 7.49996 2.99995H8.82296C9.65391 2.99995 10.323 2.32791 10.323 1.49991C10.323 0.671906 9.65096 0 8.82296 0Z" fill="black"/>
<path id="Path_4" d="M2.99995 36.1712V33.1382C2.99995 32.3102 2.32791 31.6382 1.49991 31.6382C0.671906 31.6382 0 32.3102 0 33.1382V36.1712C0 36.9992 0.672047 37.6713 1.50005 37.6713C2.32805 37.6713 2.99995 36.9992 2.99995 36.1712Z" fill="black"/>
<path id="Path_5" d="M1.50005 28.5722C2.32805 28.5722 3.00009 27.9001 3.00009 27.0721V24.0391C3.00009 23.2111 2.32805 22.5391 1.50005 22.5391C0.672047 22.5391 0 23.2111 0 24.0391V27.0721C0 27.9001 0.672047 28.5722 1.50005 28.5722Z" fill="black"/>
<path id="Path_6" d="M1.50005 10.3768C2.32805 10.3768 3.00009 9.70472 3.00009 8.87672V7.49972C3.00009 7.08276 3.05705 6.67172 3.16814 6.27572C3.39314 5.47767 2.93119 4.64967 2.13314 4.42467C1.34114 4.18772 0.507094 4.65867 0.282094 5.45967C0.0960469 6.12272 0 6.80981 0 7.49972V8.87672C0 9.70472 0.672047 10.3768 1.50005 10.3768Z" fill="black"/>
<path id="Path_7" d="M1.50005 19.476C2.32805 19.476 3.00009 18.8039 3.00009 17.9759V14.9429C3.00009 14.1149 2.32805 13.4429 1.50005 13.4429C0.672047 13.4429 0 14.1149 0 14.9429V17.9759C0 18.8039 0.672047 19.476 1.50005 19.476Z" fill="black"/>
<path id="Path_8" d="M6.26982 41.829C5.54377 41.622 4.87187 41.229 4.33187 40.6921C3.74687 40.1071 2.79582 40.1131 2.21082 40.6981C1.62582 41.2861 1.62877 42.2371 2.21687 42.8192C3.11687 43.7162 4.23582 44.3701 5.45082 44.7152C5.58877 44.7542 5.72687 44.7722 5.86187 44.7722C6.51282 44.7722 7.11582 44.3431 7.30187 43.6832C7.52982 42.885 7.06773 42.054 6.26982 41.829Z" fill="black"/>
<path id="Path_9" d="M43.2571 7.30793C43.3951 7.30793 43.5361 7.28993 43.6772 7.24493C44.4721 7.01093 44.9311 6.17997 44.6971 5.38488C44.3432 4.17283 43.6772 3.05993 42.7741 2.16583C42.1861 1.58379 41.2351 1.58688 40.653 2.17779C40.071 2.76574 40.077 3.71679 40.665 4.29883C41.205 4.83883 41.607 5.50483 41.817 6.22779C42.0092 6.88197 42.6062 7.30793 43.2571 7.30793Z" fill="black"/>
<path id="Path_10" d="M36.117 0H33.084C32.256 0 31.584 0.672047 31.584 1.50005C31.584 2.32805 32.256 3.00009 33.084 3.00009H36.117C36.945 3.00009 37.6171 2.32805 37.6171 1.50005C37.6171 0.672047 36.945 0 36.117 0Z" fill="black"/>
<path id="Path_11" d="M14.9369 42H11.9039C11.0759 42 10.4038 42.672 10.4038 43.5C10.4038 44.328 11.0759 45 11.9039 45H14.9369C15.7649 45 16.4369 44.3279 16.4369 43.4999C16.4369 42.6719 15.7649 42 14.9369 42Z" fill="black"/>
<path id="Path_12" d="M43.5 10.3501C42.672 10.3501 42 11.0221 42 11.8501V14.8831C42 15.7111 42.672 16.3832 43.5 16.3832C44.328 16.3832 45.0001 15.7111 45.0001 14.8831V11.8501C45.0001 11.0191 44.328 10.3501 43.5 10.3501Z" fill="black"/>
<path id="Path_13" d="M27.0208 0H23.9878C23.1569 0 22.4878 0.672047 22.4878 1.50005C22.4878 2.32805 23.1598 3.00009 23.9878 3.00009H27.0179C27.8488 3.00009 28.5209 2.32805 28.5209 1.50005C28.5209 0.672047 27.8488 0 27.0208 0Z" fill="black"/>
<path id="Path_14" d="M17.9217 0H14.8887C14.0607 0 13.3887 0.672047 13.3887 1.50005C13.3887 2.32805 14.0607 3.00009 14.8887 3.00009H17.9217C18.7497 3.00009 19.4218 2.32805 19.4218 1.50005C19.4218 0.672047 18.7497 0 17.9217 0Z" fill="black"/>
</g>
<path id="Path_15" d="M43.5 19.5C42.672 19.5 42 20.172 42 21V22.5C42 23.328 42.672 24 43.5 24C44.328 24 45.0001 23.328 45.0001 22.5V20.9999C45.0001 20.1719 44.328 19.5 43.5 19.5Z" fill="black"/>
<path id="Shape" fill-rule="evenodd" clip-rule="evenodd" d="M44.5618 21.4379L49.2118 26.0879C52.2988 29.1779 53.9998 33.2848 53.9998 37.6498C53.9998 46.6649 46.6648 53.9999 37.6498 53.9999H31.4998C27.3659 53.9999 23.9999 50.6339 23.9996 46.4999V41.1209L22.6556 39.7769C21.7707 38.8949 21.2847 37.7159 21.2847 36.4649C21.2847 35.2139 21.7707 34.0379 22.6556 33.1529C23.3876 32.4208 24.3206 31.9618 25.3316 31.8239C25.2416 30.5189 25.6945 29.1839 26.6906 28.1879C27.7316 27.147 29.2256 26.661 30.6566 26.8619C30.8276 25.974 31.2537 25.1249 31.9407 24.438C33.2007 23.178 35.1566 22.755 36.7917 23.3249C37.0108 22.6349 37.3947 21.9839 37.9407 21.4379C39.7648 19.6138 42.7377 19.6138 44.5618 21.4379ZM31.4998 50.9999H37.6498C45.0118 50.9999 50.9999 45.0118 50.9997 37.65C50.9997 34.086 49.6108 30.7319 47.0908 28.2119L42.4407 23.5619C41.7837 22.9049 40.7188 22.9049 40.0618 23.5619C39.7438 23.8769 39.5668 24.2999 39.5668 24.7499C39.5668 25.1999 39.7409 25.6229 40.0588 25.9379C40.3529 26.2319 40.4998 26.6158 40.4998 26.9999C40.4998 27.3839 40.3527 27.7678 40.0618 28.0619C39.4768 28.6469 38.5257 28.6469 37.9407 28.0619L36.4407 26.5618C35.8048 25.9258 34.6978 25.9258 34.0617 26.5618C33.4047 27.2188 33.4047 28.2838 34.0617 28.9408L35.5618 30.4408C35.8529 30.7319 35.9998 31.1158 35.9998 31.4999C35.9998 31.8839 35.8527 32.2678 35.5618 32.5619C34.9768 33.1469 34.0257 33.1469 33.4407 32.5619L31.1907 30.3119C30.5548 29.6758 29.4478 29.6758 28.8118 30.3119C28.1548 30.9689 28.1548 32.0338 28.8118 32.6908L32.5618 36.4409C32.8529 36.732 32.9999 37.1159 32.9999 37.4999C32.9999 37.884 32.8528 38.2679 32.5618 38.5619C31.9768 39.1469 31.0258 39.1469 30.4408 38.5619L27.1558 35.2769C26.5199 34.6409 25.4129 34.6409 24.7768 35.2769C24.4587 35.5949 24.2848 36.0179 24.2848 36.4649C24.2848 36.912 24.4589 37.3379 24.7768 37.6529L32.5618 45.4379C32.8529 45.732 32.9999 46.1159 32.9999 46.4999C32.9999 46.884 32.8528 47.2679 32.5618 47.5619C31.9768 48.1469 31.0258 48.1469 30.4408 47.5619L26.9998 44.121V46.4999C26.9998 48.981 29.0188 50.9999 31.4998 50.9999Z" fill="black"/>
</g>
</svg>
